<svg width="254.5" height="75.601" viewBox="0 0 254.5 75.601" xmlns="http://www.w3.org/2000/svg"><g id="svgGroup" stroke-linecap="round" fill-rule="evenodd" font-size="9pt" stroke="#000" stroke-width="0.25mm" fill="#000" style="stroke:#000;stroke-width:0.25mm;fill:#000"><path d="M 25.8 75 L 24.2 6.7 A 24.998 24.998 0 0 0 17.729 10.269 A 21.367 21.367 0 0 0 13.2 15.05 A 21.651 21.651 0 0 0 9.761 23.564 A 29.614 29.614 0 0 0 9.3 28.9 Q 9.3 32.6 10 34.05 A 50.196 50.196 0 0 1 10.164 34.393 Q 10.593 35.299 10.679 35.592 A 0.434 0.434 0 0 1 10.7 35.7 A 20.861 20.861 0 0 1 7.88 35.522 Q 6.425 35.323 5.242 34.902 A 8.223 8.223 0 0 1 2.65 33.45 A 6.745 6.745 0 0 1 0.726 30.635 Q 0.296 29.501 0.121 28.083 A 17.01 17.01 0 0 1 0 26 A 16.53 16.53 0 0 1 1.95 18.33 Q 3.199 15.913 5.25 13.55 Q 10.5 7.5 18.7 3.75 A 41.466 41.466 0 0 1 28.95 0.527 A 36.323 36.323 0 0 1 35.1 0 Q 36.5 0 39.1 0.2 L 40 61.7 L 61 0.5 L 73.7 0.5 L 74.6 61.7 L 95.6 0.5 L 102.6 0.5 L 74.8 75 L 60.4 75 L 59.2 24.1 L 40.2 75 L 25.8 75 Z M 140.7 75 L 166.1 6.3 A 25.705 25.705 0 0 0 159.64 9.421 A 21.086 21.086 0 0 0 154.35 14.55 Q 150.2 20.3 150.2 28.8 Q 150.2 32.534 150.876 33.951 A 2.972 2.972 0 0 0 150.9 34 Q 151.571 35.342 151.599 35.673 A 0.321 0.321 0 0 1 151.6 35.7 Q 142.224 35.7 141.064 28.713 A 12.906 12.906 0 0 1 140.9 26.6 A 17.69 17.69 0 0 1 142.488 19.415 Q 143.646 16.787 145.65 14.15 Q 150.4 7.9 157.85 3.95 A 34.947 34.947 0 0 1 165.694 0.882 A 28.632 28.632 0 0 1 172.7 0 A 21.356 21.356 0 0 1 178.122 0.723 A 25.744 25.744 0 0 1 180.3 1.4 L 178 54.1 L 200 1.4 L 214.4 1.4 L 203.9 75 L 189.5 75 L 195.9 30.1 L 177.1 75 L 163.4 75 L 165.4 29.9 L 148.7 75 L 140.7 75 Z M 134 57.1 L 137.4 57.1 A 51.435 51.435 0 0 1 130.737 66.043 Q 126 71.045 120.513 73.429 A 26.345 26.345 0 0 1 109.9 75.6 A 22.853 22.853 0 0 1 105.301 75.166 Q 101.123 74.307 98.4 71.75 A 11.796 11.796 0 0 1 95.39 67 Q 94.711 65.086 94.455 62.723 A 28.096 28.096 0 0 1 94.3 59.7 Q 94.3 53.231 96.673 45.532 A 69.739 69.739 0 0 1 97 44.5 Q 99.7 36.2 105.8 30.15 A 20.641 20.641 0 0 1 119.283 24.172 A 27.62 27.62 0 0 1 121.3 24.1 A 18.339 18.339 0 0 1 125.451 24.527 Q 132.3 26.125 132.3 33.7 Q 132.3 39.3 129.1 44 A 23.524 23.524 0 0 1 120.929 51.37 A 27.397 27.397 0 0 1 120.6 51.55 Q 115.3 54.4 109.3 54.8 Q 109.128 57.388 109.104 58.488 A 14.663 14.663 0 0 0 109.1 58.8 A 22.107 22.107 0 0 0 109.203 61.021 Q 109.428 63.235 110.142 64.542 A 4.153 4.153 0 0 0 110.8 65.45 A 5.066 5.066 0 0 0 112.669 66.639 Q 114.148 67.2 116.3 67.2 A 19.48 19.48 0 0 0 120.876 66.687 A 14.942 14.942 0 0 0 125.55 64.7 Q 128.347 62.884 131.541 59.695 A 68.658 68.658 0 0 0 134 57.1 Z M 251.1 57.1 L 254.5 57.1 A 51.435 51.435 0 0 1 247.837 66.043 Q 243.1 71.045 237.613 73.429 A 26.345 26.345 0 0 1 227 75.6 A 22.853 22.853 0 0 1 222.401 75.166 Q 218.223 74.307 215.5 71.75 A 11.796 11.796 0 0 1 212.49 67 Q 211.811 65.086 211.555 62.723 A 28.096 28.096 0 0 1 211.4 59.7 Q 211.4 53.231 213.773 45.532 A 69.739 69.739 0 0 1 214.1 44.5 Q 216.8 36.2 222.9 30.15 A 20.641 20.641 0 0 1 236.383 24.172 A 27.62 27.62 0 0 1 238.4 24.1 A 18.339 18.339 0 0 1 242.551 24.527 Q 249.4 26.125 249.4 33.7 Q 249.4 39.3 246.2 44 A 23.524 23.524 0 0 1 238.029 51.37 A 27.397 27.397 0 0 1 237.7 51.55 Q 232.4 54.4 226.4 54.8 Q 226.228 57.388 226.204 58.488 A 14.663 14.663 0 0 0 226.2 58.8 A 22.107 22.107 0 0 0 226.303 61.021 Q 226.528 63.235 227.242 64.542 A 4.153 4.153 0 0 0 227.9 65.45 A 5.066 5.066 0 0 0 229.769 66.639 Q 231.248 67.2 233.4 67.2 A 19.48 19.48 0 0 0 237.976 66.687 A 14.942 14.942 0 0 0 242.65 64.7 Q 245.447 62.884 248.641 59.695 A 68.658 68.658 0 0 0 251.1 57.1 Z M 110.1 50 Q 113.8 49.8 117.15 47.4 Q 120.5 45 122.55 41.3 Q 124.6 37.6 124.6 33.5 Q 124.6 29.4 122.1 29.4 A 4.792 4.792 0 0 0 119.421 30.286 Q 117.206 31.763 115.05 35.7 A 45.223 45.223 0 0 0 111.228 45.166 A 55.223 55.223 0 0 0 110.1 50 Z M 227.2 50 Q 230.9 49.8 234.25 47.4 Q 237.6 45 239.65 41.3 Q 241.7 37.6 241.7 33.5 Q 241.7 29.4 239.2 29.4 A 4.792 4.792 0 0 0 236.521 30.286 Q 234.306 31.763 232.15 35.7 A 45.223 45.223 0 0 0 228.328 45.166 A 55.223 55.223 0 0 0 227.2 50 Z" vector-effect="non-scaling-stroke"/></g></svg>